<svg width="77" height="100" viewBox="0 0 77 100" fill="none" xmlns="http://www.w3.org/2000/svg">
<path fill-rule="evenodd" clip-rule="evenodd" d="M43.3923 7.22277C43.8438 8.15467 60.0964 50.5636 60.0964 50.5636H51.5183L46.5525 37.5148C43.3922 37.5148 34.8137 41.709 28.0417 48.6993C27.2891 49.3208 25.3328 50.5636 23.5271 50.5636H16.7556L33.9109 9.55285C34.3624 8.62098 35.7174 7.22277 37.5232 7.22277C37.5574 7.22277 41.5941 7.22252 43.3923 7.22277ZM30.7517 37.9796C33.009 36.1155 39.3296 32.8531 44.2957 31.921L38.8777 17.9405L30.7517 37.9796Z" fill="#BBF49C"/>
<path d="M9.32231 94.8265C4.82876 94.8265 2.12431 92.7461 2.12431 89.2512C2.12431 86.1722 4.41269 84.2583 8.86463 83.8006L17.8101 82.8853V82.0948C17.8101 79.3903 16.6035 78.6414 13.275 78.6414C10.1128 78.6414 8.82303 79.4735 8.82303 81.8451V82.0115H2.54038V81.8867C2.54038 76.7275 6.8675 73.1493 13.7326 73.1493C20.681 73.1493 23.968 76.7275 23.968 82.178V94.4104H18.143V89.6256H17.8101C16.8532 92.871 13.9407 94.8265 9.32231 94.8265ZM8.40696 88.8351C8.40696 89.9585 9.2807 90.4161 11.1114 90.4161C15.3553 90.4161 17.6437 89.4176 17.8101 86.4635L10.5705 87.2956C9.07267 87.4204 8.40696 87.8365 8.40696 88.8351ZM33.3724 94.4104H27.1314V66.5338H33.3724V94.4104ZM44.5445 94.4104H38.3035V78.7246H35.3494V73.5653H38.4283C39.094 69.363 42.7554 66.5338 49.1629 66.5338H50.9936V71.0689H48.1644C45.4183 71.0689 44.1285 71.5266 44.2949 73.5653H50.9936V78.7246H44.5445V94.4104ZM59.4619 94.8265C54.9684 94.8265 52.2639 92.7461 52.2639 89.2512C52.2639 86.1722 54.5523 84.2583 59.0043 83.8006L67.9498 82.8853V82.0948C67.9498 79.3903 66.7432 78.6414 63.4146 78.6414C60.2525 78.6414 58.9627 79.4735 58.9627 81.8451V82.0115H52.68V81.8867C52.68 76.7275 57.0071 73.1493 63.8723 73.1493C70.8206 73.1493 74.1076 76.7275 74.1076 82.178V94.4104H68.2826V89.6256H67.9498C66.9928 92.871 64.0803 94.8265 59.4619 94.8265ZM58.5466 88.8351C58.5466 89.9585 59.4203 90.4161 61.251 90.4161C65.4949 90.4161 67.7833 89.4176 67.9498 86.4635L60.7101 87.2956C59.2123 87.4204 58.5466 87.8365 58.5466 88.8351Z" fill="#BBF49C"/>
</svg>
