<svg width="28" height="35" viewBox="0 0 28 35" fill="none" xmlns="http://www.w3.org/2000/svg">
<path d="M21.3887 34.8265C20.8253 34.6719 20.2483 34.0126 20.1229 33.3779C20.0416 32.9646 20.1341 32.6758 20.7185 31.519C23.0823 26.8453 24.0889 22.5594 24.0406 17.3741C23.994 12.3629 23.0329 8.47597 20.6864 3.83312C20.1837 2.83662 19.7702 1.9104 19.7689 1.77569C19.7643 1.27849 20.1757 0.551979 20.6244 0.263139C21.2402 -0.132652 22.2807 -0.0738295 22.7828 0.384833C22.9747 0.561139 23.4801 1.36729 23.9035 2.1754C25.5795 5.37656 26.7407 8.89764 27.3325 12.5707C27.6988 14.8438 27.8076 19.1596 27.5505 21.2484C27.0797 25.1015 26.0917 28.547 24.4926 31.9308C23.5248 33.9763 22.9153 34.8205 22.3954 34.8273C22.2915 34.8287 22.1236 34.8567 22.0221 34.8896C21.9184 34.9221 21.6327 34.8939 21.3887 34.8265ZM14.6528 31.4204C13.7899 31.1818 13.1584 30.1358 13.3988 29.3427C13.4568 29.1508 13.8557 28.2646 14.2832 27.3736C16.0912 23.6007 16.8215 19.5722 16.4086 15.632C16.071 12.3944 15.4679 10.3575 13.971 7.38557C12.9678 5.39167 12.9185 5.08118 13.484 4.26575C14.0233 3.49014 15.3805 3.34764 16.1011 3.99108C16.6009 4.43698 18.1683 7.62083 18.7803 9.42759C20.803 15.4069 20.5621 21.8572 18.0972 27.7896C16.8356 30.8287 15.9372 31.7748 14.6528 31.4204ZM7.70851 27.9679C7.17311 27.7355 6.70994 27.1802 6.58078 26.6161C6.50014 26.2725 6.62932 25.8893 7.24796 24.6054C9.52727 19.8892 9.5096 15.3757 7.19714 10.8292C6.18066 8.83217 6.15481 8.43249 6.99032 7.62872C7.40481 7.23206 7.57895 7.16051 8.16522 7.15278C9.14528 7.13985 9.65646 7.62397 10.5492 9.40542C11.9222 12.1455 12.4954 14.5308 12.5195 17.596C12.5444 20.7469 12.0491 22.9164 10.6381 25.8437C9.82843 27.5197 9.42546 27.9647 8.60131 28.0882C8.34942 28.126 7.94844 28.0717 7.70851 27.9679ZM1.22884 24.7519C0.804663 24.5835 0.31926 24.0174 0.170827 23.5219C0.00636201 22.9679 0.132785 22.5248 0.755845 21.4784C1.55755 20.1324 1.74114 19.4133 1.7249 17.6683C1.70865 15.9234 1.51171 15.2091 0.685139 13.8846C0.404384 13.4356 0.122794 12.8968 0.0566801 12.6875C-0.21257 11.8108 0.511889 10.7227 1.49908 10.5249C2.33609 10.357 2.91476 10.7221 3.69581 11.9103C5.95814 15.3504 6.0013 19.9853 3.8033 23.4548C3.02702 24.679 2.1527 25.1194 1.22884 24.7519Z" fill="white"/>
</svg>
