<svg width="18" height="23" viewBox="0 0 18 23" fill="none" xmlns="http://www.w3.org/2000/svg">
<path d="M17.8394 10.7866L9.58945 0.286569C9.51927 0.197271 9.42973 0.125078 9.32758 0.0754359C9.22542 0.025794 9.11333 0 8.99976 0C8.88619 0 8.77409 0.025794 8.67194 0.0754359C8.56979 0.125078 8.48025 0.197271 8.41007 0.286569L0.160072 10.7866C0.056367 10.9187 0 11.0818 0 11.2497C0 11.4176 0.056367 11.5807 0.160072 11.7128L8.41007 22.2128C8.48025 22.3021 8.56979 22.3743 8.67194 22.424C8.77409 22.4736 8.88619 22.4994 8.99976 22.4994C9.11333 22.4994 9.22542 22.4736 9.32758 22.424C9.42973 22.3743 9.51927 22.3021 9.58945 22.2128L17.8394 11.7128C17.9432 11.5807 17.9995 11.4176 17.9995 11.2497C17.9995 11.0818 17.9432 10.9187 17.8394 10.7866ZM9.74976 2.91813L16.0704 10.9619L9.74976 13.8353V2.91813ZM8.24976 13.8353L1.92913 10.9619L8.24976 2.91813V13.8353ZM8.24976 15.4825V19.5813L3.2407 13.2063L8.24976 15.4825ZM9.74976 15.4825L14.7588 13.2053L9.74976 19.5803V15.4825Z" fill="white"/>
</svg>
