<svg width="144" height="32" viewBox="0 0 144 32" fill="none" xmlns="http://www.w3.org/2000/svg">
<rect width="32" height="32" rx="5.33333" fill="#BBF49C"/>
<path fill-rule="evenodd" clip-rule="evenodd" d="M18.1045 7.11219C18.2908 7.49666 24.9941 24.987 24.999 24.9999H21.459L19.4092 19.6141C18.1049 19.6141 14.5644 21.3454 11.7695 24.2304C11.459 24.4868 10.6516 24.9999 9.90625 24.9999H7.11133L14.1914 8.0741C14.3777 7.6895 14.9373 7.11219 15.6826 7.11219C15.7017 7.11219 17.3633 7.11208 18.1045 7.11219ZM12.8877 19.8075C13.8193 19.0381 16.4279 17.6912 18.4775 17.3065L16.2412 11.537L12.8877 19.8075Z" fill="#00413D"/>
<path d="M43.9476 26.82C40.4916 26.82 38.4116 25.22 38.4116 22.532C38.4116 20.164 40.1716 18.692 43.5956 18.34L50.4756 17.636V17.028C50.4756 14.948 49.5476 14.372 46.9876 14.372C44.5556 14.372 43.5636 15.012 43.5636 16.836V16.964H38.7316V16.868C38.7316 12.9 42.0596 10.148 47.3396 10.148C52.6836 10.148 55.2116 12.9 55.2116 17.092V26.5H50.7316V22.82H50.4756C49.7396 25.316 47.4996 26.82 43.9476 26.82ZM43.2436 22.212C43.2436 23.076 43.9156 23.428 45.3236 23.428C48.5876 23.428 50.3476 22.66 50.4756 20.388L44.9076 21.028C43.7556 21.124 43.2436 21.444 43.2436 22.212ZM62.4446 26.5H57.6446V5.06H62.4446V26.5ZM71.0371 26.5H66.2371V14.436H63.9651V10.468H66.3331C66.8451 7.236 69.6611 5.06 74.5891 5.06H75.9971V8.548H73.8211C71.7091 8.548 70.7171 8.9 70.8451 10.468H75.9971V14.436H71.0371V26.5ZM82.5101 26.82C79.0541 26.82 76.9741 25.22 76.9741 22.532C76.9741 20.164 78.7341 18.692 82.1581 18.34L89.0381 17.636V17.028C89.0381 14.948 88.1101 14.372 85.5501 14.372C83.1181 14.372 82.1261 15.012 82.1261 16.836V16.964H77.2941V16.868C77.2941 12.9 80.6221 10.148 85.9021 10.148C91.2461 10.148 93.7741 12.9 93.7741 17.092V26.5H89.2941V22.82H89.0381C88.3021 25.316 86.0621 26.82 82.5101 26.82ZM81.8061 22.212C81.8061 23.076 82.4781 23.428 83.8861 23.428C87.1501 23.428 88.9101 22.66 89.0381 20.388L83.4701 21.028C82.3181 21.124 81.8061 21.444 81.8061 22.212Z" fill="white"/>
</svg>
