<svg width="45" height="61" viewBox="0 0 45 61" fill="none" xmlns="http://www.w3.org/2000/svg">
<g clip-path="url(#clip0_601_830)">
<rect x="0.368622" y="0.940475" width="43.3185" height="59.5629" rx="5.95629" transform="rotate(-0.756387 0.368622 0.940475)" fill="url(#paint0_linear_601_830)"/>
<path fill-rule="evenodd" clip-rule="evenodd" d="M45.1083 39.8487L36.1461 30.4974L44.8954 20.9123L44.1616 20.1475L35.2017 29.9623L30.2935 30.0271L30.195 21.2668L30.1827 20.1717L29.9118 -3.9192L28.8876 -3.90568L29.1584 20.1852L14.8187 20.3746L14.5479 -3.71636L13.5236 -3.70284L13.7945 20.3881L13.8068 21.4831L13.9053 30.2435L8.99597 30.3083L-0.181227 20.7329L-0.896894 21.5169L8.06575 30.8682L-0.683995 40.4533L0.0490845 41.2181L9.00828 31.4033L13.9176 31.3385L14.0161 40.0988L14.0284 41.1939L14.2992 65.2848L15.3235 65.2713L15.0526 41.1804L29.3923 40.991L29.6632 65.082L30.6874 65.0685L30.4104 40.43C30.407 40.1276 30.175 39.8855 29.8921 39.8892L15.0403 40.0853L14.9357 30.7775L14.831 21.4696L29.1707 21.2803L29.2754 30.5881C29.2788 30.8906 29.5107 31.1326 29.7936 31.1289L35.2141 31.0573L44.3919 40.6327L45.1083 39.8487Z" fill="#47453F"/>
</g>
<rect x="0.368622" y="0.940475" width="43.3185" height="59.5629" rx="5.95629" transform="rotate(-0.756387 0.368622 0.940475)" stroke="#47453F" stroke-width="0.893443"/>
<defs>
<linearGradient id="paint0_linear_601_830" x1="0.717964" y1="0.940477" x2="72.4352" y2="63.5433" gradientUnits="userSpaceOnUse">
<stop stop-color="#F8ECC1"/>
<stop offset="1" stop-color="#C8AC48"/>
</linearGradient>
<clipPath id="clip0_601_830">
<rect x="0.368622" y="0.940475" width="43.3185" height="59.5629" rx="5.95629" transform="rotate(-0.756387 0.368622 0.940475)" fill="white"/>
</clipPath>
</defs>
</svg>
