<svg width="22" height="22" viewBox="0 0 22 22" fill="none" xmlns="http://www.w3.org/2000/svg">
<path fill-rule="evenodd" clip-rule="evenodd" d="M16.2197 12.2197C16.5126 11.9268 16.9873 11.9268 17.2802 12.2197L21.2802 16.2197C21.5731 16.5126 21.5731 16.9873 21.2802 17.2802L17.2802 21.2802C16.9873 21.5731 16.5126 21.5731 16.2197 21.2802C15.9268 20.9873 15.9268 20.5126 16.2197 20.2197L18.9394 17.4999H6.74994C6.33573 17.4999 5.99994 17.1642 5.99994 16.7499C5.99994 16.3357 6.33573 15.9999 6.74994 15.9999H18.9394L16.2197 13.2802C15.9268 12.9873 15.9268 12.5126 16.2197 12.2197ZM4.21967 0.21967C4.51256 -0.0732233 4.98732 -0.0732233 5.28022 0.21967C5.57311 0.512563 5.57311 0.987324 5.28022 1.28022L2.56049 3.99994H14.7499C15.1642 3.99994 15.4999 4.33573 15.4999 4.74994C15.4999 5.16416 15.1642 5.49994 14.7499 5.49994H2.56049L5.28022 8.21967C5.57311 8.51256 5.57311 8.98732 5.28022 9.28022C4.98732 9.57311 4.51256 9.57311 4.21967 9.28022L0.21967 5.28022C-0.0732233 4.98732 -0.0732233 4.51256 0.21967 4.21967L4.21967 0.21967Z" fill="white"/>
</svg>
