<svg width="21" height="15" viewBox="0 0 21 15" fill="none" xmlns="http://www.w3.org/2000/svg">
<path d="M7.5 6C7.5 5.80109 7.57902 5.61032 7.71967 5.46967C7.86032 5.32902 8.05109 5.25 8.25 5.25H15.75C15.9489 5.25 16.1397 5.32902 16.2803 5.46967C16.421 5.61032 16.5 5.80109 16.5 6C16.5 6.19891 16.421 6.38968 16.2803 6.53033C16.1397 6.67098 15.9489 6.75 15.75 6.75H8.25C8.05109 6.75 7.86032 6.67098 7.71967 6.53033C7.57902 6.38968 7.5 6.19891 7.5 6ZM8.25 9.75H15.75C15.9489 9.75 16.1397 9.67098 16.2803 9.53033C16.421 9.38968 16.5 9.19891 16.5 9C16.5 8.80109 16.421 8.61032 16.2803 8.46967C16.1397 8.32902 15.9489 8.25 15.75 8.25H8.25C8.05109 8.25 7.86032 8.32902 7.71967 8.46967C7.57902 8.61032 7.5 8.80109 7.5 9C7.5 9.19891 7.57902 9.38968 7.71967 9.53033C7.86032 9.67098 8.05109 9.75 8.25 9.75ZM21 1.5V12.75C21 13.3467 20.7629 13.919 20.341 14.341C19.919 14.7629 19.3467 15 18.75 15H2.25C1.65505 15 1.08431 14.7644 0.662645 14.3446C0.240983 13.9249 0.00272688 13.3553 0 12.7603V3.75C0 3.55109 0.0790176 3.36032 0.21967 3.21967C0.360322 3.07902 0.551088 3 0.75 3C0.948912 3 1.13968 3.07902 1.28033 3.21967C1.42098 3.36032 1.5 3.55109 1.5 3.75V12.75C1.5 12.9489 1.57902 13.1397 1.71967 13.2803C1.86032 13.421 2.05109 13.5 2.25 13.5C2.44891 13.5 2.63968 13.421 2.78033 13.2803C2.92098 13.1397 3 12.9489 3 12.75V1.5C3 1.10218 3.15804 0.720644 3.43934 0.43934C3.72064 0.158035 4.10218 0 4.5 0H19.5C19.8978 0 20.2794 0.158035 20.5607 0.43934C20.842 0.720644 21 1.10218 21 1.5ZM19.5 1.5H4.5V12.75C4.50037 13.0055 4.45693 13.2592 4.37156 13.5H18.75C18.9489 13.5 19.1397 13.421 19.2803 13.2803C19.421 13.1397 19.5 12.9489 19.5 12.75V1.5Z" fill="white"/>
</svg>
